#!OML:ASF F:\VICON\USERDATA\INSTALL\Justin_Nancy\Justin_Nancy.ASF
:FULLY-SPECIFIED
:DEGREES
64
root 8.45092 17.0097 -11.1038 2.72193 -1.75634 9.40366
lowerback 6.07813 -1.67856 -10.4184
upperback -1.34513 -3.02581 0.696348
thorax -4.27055 -1.22048 6.87416
lowerneck -16.9093 -4.33165 -10.1923
upperneck 21.9438 -4.73566 5.96196
head 10.1935 -2.36102 3.15385
rclavicle -4.72114e-015 1.66979e-014
rhumerus -43.7523 -26.8322 -63.9096
rradius 21.2969
rwrist 19.207
rhand -16.0458 8.22974
rfingers 7.12502
rthumb 10.156 -21.5051
lclavicle -4.72114e-015 1.66979e-014
lhumerus -21.7761 2.03274 83.5334
lradius 36.2433
lwrist -3.84189
lhand -17.194 23.6975
lfingers 7.12502
lthumb 9.04813 53.4835
rfemur -34.4037 -4.14874 15.1008
rtibia 14.5956
rfoot -4.95998 -17.9462
rtoes -0.917553
lfemur 10.248 0.898899 -29.319
ltibia 15.0591
lfoot -17.8651 2.27888
ltoes -6.83594
65
root 8.38459 16.9922 -10.8637 2.59794 -1.72936 9.48513
lowerback 6.25348 -1.64643 -10.4457
upperback -1.33326 -3.00777 0.636438
thorax -4.36307 -1.20646 6.83271
lowerneck -16.6394 -4.38741 -10.1916
upperneck 21.7663 -4.85396 6.0295
head 10.0913 -2.41024 3.16121
rclavicle 2.27111e-014 -2.94201e-014
rhumerus -44.4438 -27.6491 -63.031
rradius 21.1134
rwrist 19.484
rhand -15.8794 8.42419
rfingers 7.12502
rthumb 10.3165 -21.3028
lclavicle 2.27111e-014 -2.94201e-014
lhumerus -21.5185 2.35766 83.2791
lradius 36.7286
lwrist -3.71067
lhand -17.4645 23.065
lfingers 7.12502
lthumb 8.78709 52.862
rfemur -33.2551 -3.48549 14.8767
rtibia 11.9794
rfoot -5.28749 -17.828
rtoes -0.218729
lfemur 11.2421 0.91813 -29.0247
ltibia 14.9367
lfoot -17.4363 1.66784
ltoes -11.3599
66
root 8.31721 16.974 -10.6241 2.43441 -1.67644 9.67375
lowerback 6.53266 -1.61436 -10.6495
upperback -1.36756 -3.0186 0.606302
thorax -4.54923 -1.19407 6.93173
lowerneck -16.4683 -4.43032 -10.2276
upperneck 21.7672 -4.92962 6.05385
head 10.0681 -2.4484 3.16687
rclavicle 1.94312e-014 1.19271e-014
rhumerus -45.0826 -28.0923 -62.3222
rradius 21.0095
rwrist 19.5146
rhand -15.7814 8.40261
rfingers 7.12502
rthumb 10.411 -21.3196
lclavicle 1.94312e-014 1.19271e-014
lhumerus -21.2339 2.66136 83.1251
lradius 36.9779
lwrist -3.55262
lhand -17.4771 24.6001
lfingers 7.12502
lthumb 8.77495 54.3977
rfemur -32.3458 -3.08179 14.7598
rtibia 10.3791
rfoot -5.31799 -17.8089
rtoes -0.120049
lfemur 12.4301 0.837087 -28.8438
ltibia 14.9652
lfoot -17.0969 1.0413
ltoes -14.383
67
root 8.24561 16.9521 -10.3857 2.38777 -1.87074 9.53763
lowerback 6.61657 -1.64191 -10.6143
upperback -1.36936 -3.05677 0.731381
thorax -4.5861 -1.21001 7.05326
lowerneck -16.8273 -4.38603 -10.3476
upperneck 22.1035 -4.80527 6.04135
head 10.2487 -2.40064 3.20127
rclavicle 1.88845e-015 -5.56597e-015
rhumerus -45.2552 -28.1389 -62.0459
rradius 20.927
rwrist 19.4933
rhand -15.9609 7.6236
rfingers 7.12502
rthumb 10.2379 -22.1073
lclavicle 1.88845e-015 -5.56597e-015
lhumerus -20.9983 3.13175 82.9116
lradius 37.1711
lwrist -3.26831
lhand -17.7438 26.3916
lfingers 7.12502
lthumb 8.51755 56.1998
rfemur -32.1433 -3.1574 15.5115
rtibia 10.1342
rfoot -4.97333 -17.206
rtoes -3.2995
lfemur 13.3432 0.812022 -28.3506
ltibia 15.2982
lfoot -16.7392 0.554277
ltoes -16.4779
68
root 8.17609 16.9295 -10.1464 2.33566 -2.16496 9.68071
lowerback 6.58963 -1.62653 -10.7571
upperback -1.32039 -3.04329 0.707529
thorax -4.51637 -1.20587 7.10446
lowerneck -17.3256 -4.35723 -10.4414
upperneck 22.4556 -4.72621 6.1552
head 10.4688 -2.35517 3.27041
rclavicle -1.63003e-014 1.59028e-014
rhumerus -45.442 -28.3055 -61.801
rradius 20.8235
rwrist 19.4734
rhand -16.0471 7.56797
rfingers 7.12502
rthumb 10.1547 -22.167
lclavicle -1.63003e-014 1.59028e-014
lhumerus -20.7146 3.61328 82.6448
lradius 37.3259
lwrist -3.07751
lhand -18.3073 27.3935
lfingers 7.12502
lthumb 7.97375 57.2231
rfemur -32.3282 -3.71806 16.2645
rtibia 11.035
rfoot -4.32541 -15.9084
rtoes -4.83541
lfemur 13.759 0.834008 -28.1823
ltibia 16.0418
lfoot -16.0168 -0.0518584
ltoes -19.1433
69
root 8.10825 16.9043 -9.90097 2.11967 -2.44581 9.80096
lowerback 6.62834 -1.5722 -10.7924
upperback -1.16828 -2.97334 0.619656
thorax -4.39319 -1.18493 7.02185
lowerneck -17.2423 -4.32358 -10.3835
upperneck 22.0995 -4.69155 6.1621
head 10.3187 -2.33038 3.26356
rclavicle -9.29318e-015 1.59028e-015
rhumerus -45.6759 -29.0172 -61.2995
rradius 20.62
rwrist 20.0201
rhand -15.9805 8.21154
rfingers 7.12502
rthumb 10.2189 -21.5202
lclavicle -9.29318e-015 1.59028e-015
lhumerus -20.3862 4.23335 82.3315
lradius 37.4925
lwrist -3.02472
lhand -18.2619 28.5652
lfingers 7.12502
lthumb 8.01759 58.3931
rfemur -32.4884 -4.51994 17.1465
rtibia 12.6089
rfoot -3.86861 -14.012
rtoes -6.12912
lfemur 14.1224 0.719024 -28.0079
ltibia 17.1711
lfoot -15.1704 -0.79473
ltoes -21.4698
